<?xml version="1.0" standalone="no"?>
<!DOCTYPE svg PUBLIC "-//W3C//DTD SVG 20010904//EN"
 "http://www.w3.org/TR/2001/REC-SVG-20010904/DTD/svg10.dtd">
<svg version="1.0" xmlns="http://www.w3.org/2000/svg"
 width="1000.000000pt" height="1000.000000pt" viewBox="0 0 1000.000000 1000.000000"
 preserveAspectRatio="xMidYMid meet">
<metadata>
Created by potrace 1.11, written by Peter Selinger 2001-2013
</metadata>
<g transform="translate(0.000000,1000.000000) scale(0.100000,-0.100000)"
fill="#000000" stroke="none">
<path d="M4030 6734 c-14 -8 -99 -49 -190 -93 -104 -50 -183 -95 -213 -121
-44 -39 -48 -46 -45 -84 3 -38 6 -42 48 -58 25 -9 71 -24 102 -33 71 -19 121
-61 144 -121 14 -36 16 -64 11 -146 -6 -92 -4 -106 15 -145 20 -40 21 -47 9
-76 -20 -46 -25 -122 -11 -160 9 -22 13 -128 15 -342 l2 -310 -28 -90 c-25
-79 -29 -106 -29 -216 0 -97 5 -144 21 -205 31 -113 33 -137 20 -233 -8 -61
-9 -127 -2 -226 10 -140 2 -278 -17 -297 -5 -5 -58 -27 -118 -49 -169 -61
-214 -109 -214 -227 0 -100 53 -178 150 -221 73 -32 123 -36 211 -16 68 16 89
17 143 7 35 -7 85 -12 112 -12 43 0 54 5 92 39 32 30 58 43 100 52 96 20 109
34 156 163 l24 66 -33 28 c-18 16 -75 45 -127 65 -98 39 -147 76 -167 130 -18
47 -12 143 15 260 31 131 34 217 15 343 -13 82 -13 98 2 160 21 86 22 198 2
274 -17 67 -20 127 -10 225 6 59 4 78 -14 123 -32 81 -28 131 14 184 20 24 48
69 63 101 15 31 30 57 34 57 9 0 25 -52 37 -122 6 -31 33 -102 60 -157 66
-131 89 -216 101 -381 22 -282 39 -380 101 -597 34 -121 39 -151 39 -241 0
-101 1 -106 40 -186 23 -47 48 -120 60 -175 11 -51 30 -110 42 -130 21 -34
126 -192 134 -200 7 -8 182 42 219 62 30 17 43 33 57 71 9 27 30 65 46 85 63
78 66 92 67 266 l1 160 36 85 c57 135 80 273 98 605 11 213 29 324 69 433 17
44 42 136 56 203 14 68 38 150 52 181 26 58 81 118 108 118 13 0 38 -70 80
-225 23 -82 30 -231 16 -304 -17 -88 -16 -177 4 -260 16 -63 17 -80 6 -115
-26 -81 -25 -138 4 -227 35 -109 45 -247 21 -303 -22 -53 -20 -105 9 -240 29
-132 31 -192 10 -242 -17 -42 -71 -68 -160 -79 -106 -12 -145 -47 -145 -126 0
-26 3 -55 6 -64 12 -29 83 -56 178 -67 50 -5 137 -16 193 -24 56 -8 150 -14
210 -14 176 0 267 36 316 125 22 38 25 54 20 91 -9 66 -31 74 -193 74 -76 0
-140 5 -152 11 -13 7 -18 7 -14 0 4 -5 -3 -15 -14 -21 -27 -14 -102 -9 -108 8
-5 16 63 45 88 37 18 -6 19 -4 5 22 -22 43 -19 169 7 266 31 117 30 273 -5
483 -30 180 -35 302 -13 337 8 12 17 65 21 117 3 52 15 167 25 255 29 251 32
311 21 460 -9 116 -17 159 -46 245 -40 120 -42 151 -15 238 11 35 20 73 20 85
0 34 39 103 65 115 13 6 55 17 92 23 132 23 183 66 183 154 0 66 -11 75 -128
105 -25 6 -57 25 -78 47 -39 39 -35 39 -197 17 -42 -6 -50 -4 -63 15 -19 27
-58 27 -115 1 -30 -13 -66 -20 -112 -20 -56 0 -83 -7 -164 -41 -80 -35 -103
-40 -139 -35 l-43 5 -10 -52 c-6 -29 -15 -130 -20 -225 -8 -144 -13 -180 -31
-217 -12 -25 -26 -45 -31 -45 -17 0 -9 -37 11 -55 30 -27 25 -73 -14 -131 -74
-109 -103 -313 -116 -799 -5 -192 -14 -372 -19 -400 -22 -110 -45 -167 -81
-205 -32 -33 -38 -47 -43 -100 -8 -75 -19 -96 -54 -104 -99 -26 -188 229 -222
636 -8 98 -18 141 -57 255 -52 156 -63 233 -44 332 11 61 10 74 -10 151 -12
47 -28 147 -35 222 -13 127 -22 161 -59 228 -8 14 -32 83 -55 153 -37 114 -41
135 -35 190 7 73 -8 141 -39 175 -27 29 -84 59 -149 79 -27 8 -67 30 -89 50
-33 30 -49 37 -103 42 -35 4 -70 12 -77 17 -10 8 -21 7 -39 -2z m243 -782 c22
-37 35 -146 19 -156 -5 -3 -20 3 -33 13 -21 17 -24 30 -27 101 -5 91 6 102 41
42z m844 -2019 c16 -42 -67 -104 -118 -88 -35 11 -17 78 24 95 38 15 87 12 94
-7z"/>
<path d="M1275 5785 c-47 -17 -70 -42 -54 -61 14 -17 -4 -21 -159 -33 -138
-10 -161 -20 -192 -81 -16 -31 -32 -46 -73 -64 -90 -40 -102 -79 -26 -89 42
-6 73 -30 66 -52 -3 -6 -42 -9 -107 -7 -87 2 -105 0 -123 -15 -30 -27 -55 -94
-92 -248 -19 -81 -45 -161 -61 -189 l-28 -49 23 -63 c12 -35 20 -68 16 -74 -3
-6 -24 -19 -45 -30 -21 -11 -42 -30 -46 -42 -10 -33 -6 -279 7 -373 14 -110
32 -167 79 -255 22 -41 62 -120 90 -175 46 -93 60 -112 192 -246 170 -173 221
-204 331 -204 61 0 67 -2 67 -21 0 -21 38 -62 80 -85 18 -10 67 -14 170 -15
136 -1 149 -2 205 -28 91 -42 157 -35 303 32 62 29 132 55 157 59 39 5 46 9
55 39 17 51 64 81 187 120 128 40 153 59 213 164 27 47 51 74 88 100 58 38 65
61 32 102 -43 55 -192 128 -262 128 -42 0 -35 24 17 60 49 34 59 64 23 74 -30
8 -139 6 -160 -2 -16 -7 -48 -48 -133 -173 -25 -37 -65 -85 -89 -107 -46 -42
-151 -100 -221 -122 -22 -6 -102 -37 -177 -67 -78 -31 -161 -57 -190 -60 -52
-5 -54 -4 -98 41 -34 36 -51 46 -76 46 -34 0 -64 -21 -64 -46 0 -20 -28 -17
-39 5 -6 10 -15 40 -21 67 -14 61 -25 74 -64 74 -45 0 -63 16 -99 90 -27 54
-39 68 -75 85 -52 24 -59 46 -44 137 16 92 15 137 -4 189 -8 24 -20 89 -25
145 -7 86 -36 267 -55 355 -5 20 -1 27 14 31 27 7 88 87 166 216 84 138 182
233 301 288 64 31 101 31 116 2 6 -13 13 -24 14 -26 1 -1 33 5 71 14 41 10
111 16 171 16 91 1 109 -2 158 -27 37 -18 65 -40 81 -65 24 -37 25 -44 19
-124 -7 -78 -5 -89 19 -142 15 -31 63 -117 107 -190 l80 -132 86 -7 c103 -9
229 7 288 35 57 28 104 76 131 135 29 63 48 216 39 310 -10 108 -33 148 -137
245 -83 78 -92 90 -97 130 l-6 45 -65 16 c-46 13 -71 26 -90 47 -14 16 -40 35
-59 41 -19 6 -40 20 -48 31 -17 24 -46 26 -63 5 -18 -22 -32 -19 -105 21 l-65
36 -127 -7 c-109 -5 -142 -3 -223 14 -110 24 -218 26 -275 6z m1194 -2076 c-6
-12 -21 -19 -39 -19 -36 0 -40 20 -9 51 20 20 22 20 39 4 15 -14 17 -22 9 -36z"/>
<path d="M8445 5779 c-76 -17 -110 -19 -218 -14 l-127 7 -65 -36 c-73 -40 -87
-43 -105 -21 -17 21 -46 19 -63 -5 -8 -11 -29 -25 -48 -31 -19 -6 -45 -25 -59
-41 -19 -21 -44 -34 -90 -47 l-65 -16 -6 -45 c-5 -40 -14 -52 -97 -130 -104
-97 -127 -137 -137 -245 -9 -94 10 -247 39 -310 27 -59 74 -107 131 -135 59
-28 185 -44 288 -35 l86 7 80 132 c44 73 92 159 107 190 24 53 26 64 19 142
-6 80 -5 87 19 124 16 25 44 47 81 65 49 25 67 28 158 27 60 0 130 -6 171 -16
38 -9 70 -15 71 -14 1 2 8 13 14 26 15 29 52 29 116 -2 119 -55 217 -150 301
-288 78 -129 139 -209 166 -216 15 -4 19 -11 14 -31 -19 -88 -48 -269 -55
-355 -5 -56 -17 -121 -25 -145 -19 -52 -20 -97 -4 -189 15 -91 8 -113 -44
-137 -36 -17 -48 -31 -75 -85 -36 -74 -54 -90 -99 -90 -39 0 -50 -13 -64 -74
-6 -27 -15 -57 -21 -67 -11 -22 -39 -25 -39 -5 0 25 -30 46 -64 46 -25 0 -42
-10 -76 -46 -44 -45 -46 -46 -98 -41 -29 3 -112 29 -190 60 -75 30 -155 61
-177 67 -70 22 -175 80 -221 122 -24 22 -64 70 -89 107 -85 125 -117 166 -133
173 -21 8 -130 10 -159 2 -37 -10 -27 -40 22 -74 52 -36 59 -60 17 -60 -70 0
-219 -73 -262 -128 -33 -41 -26 -64 32 -102 37 -26 61 -53 88 -100 60 -105 85
-124 213 -164 123 -39 170 -69 187 -120 9 -30 16 -34 55 -39 25 -4 95 -30 157
-59 146 -67 212 -74 303 -32 56 26 69 27 205 28 103 1 152 5 170 15 42 23 80
64 80 85 0 19 6 21 68 21 109 0 160 31 330 204 132 134 146 153 192 246 28 55
68 134 90 175 47 88 65 145 79 255 13 94 17 340 7 373 -4 12 -25 31 -46 42
-21 11 -42 24 -45 30 -4 6 4 39 16 74 l23 63 -28 49 c-16 28 -42 108 -61 189
-37 156 -62 221 -94 249 -18 16 -30 18 -88 12 -119 -13 -150 -7 -137 28 8 20
43 36 80 36 30 0 41 24 23 47 -8 9 -37 27 -66 39 -41 18 -57 33 -73 64 -31 61
-54 71 -192 81 -158 12 -173 16 -158 34 9 11 7 18 -9 34 -45 45 -175 53 -326
20z m-855 -2050 c16 -29 12 -39 -20 -39 -37 0 -55 28 -33 52 17 19 39 14 53
-13z"/>
</g>
</svg>
